<svg xmlns="http://www.w3.org/2000/svg" viewBox="0 0 1200 630" role="img" aria-labelledby="title desc">
  <title id="title">Neutrogena Hydro Boost AEO/GEO Product Truth Demo</title>
  <desc id="desc">A clean public preview card for a claims-powered product truth proof of concept.</desc>
  <defs>
    <linearGradient id="panel" x1="0" x2="1" y1="0" y2="1">
      <stop stop-color="#ffffff"/>
      <stop offset="1" stop-color="#f3fbff"/>
    </linearGradient>
    <linearGradient id="drop" x1="0" x2="1" y1="0" y2="1">
      <stop stop-color="#9ee4ff"/>
      <stop offset="1" stop-color="#0677c9"/>
    </linearGradient>
    <filter id="shadow" x="-20%" y="-20%" width="140%" height="140%">
      <feDropShadow dx="0" dy="24" stdDeviation="28" flood-color="#111827" flood-opacity=".14"/>
    </filter>
  </defs>
  <rect width="1200" height="630" fill="#ffffff"/>
  <rect x="64" y="64" width="1072" height="502" rx="18" fill="url(#panel)" stroke="#dfe7ee"/>
  <path d="M104 142h210" stroke="#ef6847" stroke-width="8" stroke-linecap="round"/>
  <text x="104" y="214" fill="#111827" font-family="Inter, Arial, sans-serif" font-size="54" font-weight="800">Neutrogena Hydro Boost</text>
  <text x="104" y="282" fill="#111827" font-family="Inter, Arial, sans-serif" font-size="46" font-weight="760">Claims-Powered AEO/GEO Demo</text>
  <text x="104" y="350" fill="#5d6b78" font-family="Inter, Arial, sans-serif" font-size="25">Product truth objects, approved claims placeholders, answer-first content, and JSON-LD.</text>
  <g transform="translate(104 420)">
    <rect width="186" height="44" rx="22" fill="#dff2ff" stroke="#b8e2fb"/>
    <text x="22" y="29" fill="#035a96" font-family="Inter, Arial, sans-serif" font-size="17" font-weight="700">AEO-ready</text>
    <rect x="206" width="216" height="44" rx="22" fill="#fff0ec" stroke="#ffd0c4"/>
    <text x="228" y="29" fill="#9f341c" font-family="Inter, Arial, sans-serif" font-size="17" font-weight="700">Claims-powered</text>
    <rect x="444" width="232" height="44" rx="22" fill="#ffffff" stroke="#dfe7ee"/>
    <text x="466" y="29" fill="#1f2933" font-family="Inter, Arial, sans-serif" font-size="17" font-weight="700">GitHub Pages-ready</text>
  </g>
  <g filter="url(#shadow)" transform="translate(862 150)">
    <rect width="170" height="280" rx="40" fill="#ffffff" stroke="#dfe7ee"/>
    <path d="M85 54c38 48 68 88 68 137.2C153 230.5 123 258 85 258s-68-27.5-68-66.8C17 142 47 102 85 54Z" fill="url(#drop)"/>
    <path d="M57 106c-17.6 25.2-26.4 46.4-26.4 69.6 0 34 21.2 56 52.4 56" fill="none" stroke="#ffffff" stroke-linecap="round" stroke-width="10" opacity=".72"/>
  </g>
</svg>
